<svg xmlns="http://www.w3.org/2000/svg" viewBox="0 0 375 812" width="375" height="812">
  <defs>
    <style>
      text { font-family: 'Segoe UI', system-ui, sans-serif; }
      .label { fill: #c8c8c8; font-size: 13px; }
      .label-sm { fill: #999; font-size: 11px; }
      .heading { fill: #e8e8e8; font-size: 16px; font-weight: 600; }
      .heading-lg { fill: #fff; font-size: 20px; font-weight: 700; }
      .nav-text { fill: #888; font-size: 10px; }
      .nav-active { fill: #E8711A; font-size: 10px; }
    </style>
  </defs>

  <!-- Background -->
  <rect width="375" height="812" rx="40" fill="#1A1A2E"/>

  <!-- Page Title -->
  <text x="24" y="76" class="heading-lg">Profile</text>

  <!-- Divider -->
  <line x1="24" y1="90" x2="351" y2="90" stroke="#2A2A3E" stroke-width="1"/>

  <!-- Avatar -->
  <circle cx="187" cy="160" r="48" fill="none" stroke="#E8711A" stroke-width="2.5"/>
  <text x="187" y="170" text-anchor="middle" fill="#E8711A" font-size="24" font-weight="600">IR</text>

  <!-- User info (redacted) -->
  <rect x="110" y="224" width="155" height="16" rx="4" fill="#2A2A3E"/>
  <rect x="125" y="248" width="125" height="12" rx="3" fill="#2A2A3E"/>

  <!-- Client badge -->
  <rect x="158" y="272" width="58" height="22" rx="11" fill="#E8711A" opacity="0.2"/>
  <text x="187" y="287" text-anchor="middle" fill="#E8711A" font-size="11" font-weight="600">Client</text>

  <!-- Menu Items -->
  <!-- Account Settings -->
  <rect x="24" y="320" width="327" height="52" rx="12" fill="#2A2A3E"/>
  <circle cx="56" cy="346" r="14" fill="none" stroke="#E8711A" stroke-width="1.5" opacity="0.5"/>
  <text x="82" y="350" class="label">Account Settings</text>
  <text x="336" y="350" text-anchor="end" fill="#555" font-size="16">›</text>

  <!-- Notification Preferences -->
  <rect x="24" y="384" width="327" height="52" rx="12" fill="#2A2A3E"/>
  <circle cx="56" cy="410" r="14" fill="none" stroke="#E8711A" stroke-width="1.5" opacity="0.5"/>
  <text x="82" y="414" class="label">Notification Preferences</text>
  <text x="336" y="414" text-anchor="end" fill="#555" font-size="16">›</text>

  <!-- Help & Support -->
  <rect x="24" y="448" width="327" height="52" rx="12" fill="#2A2A3E"/>
  <circle cx="56" cy="474" r="14" fill="none" stroke="#E8711A" stroke-width="1.5" opacity="0.5"/>
  <text x="82" y="478" class="label">Help &amp; Support</text>
  <text x="336" y="478" text-anchor="end" fill="#555" font-size="16">›</text>

  <!-- Sign Out -->
  <text x="24" y="540" fill="#E8711A" font-size="15" font-weight="600">Sign Out</text>

  <!-- App Version -->
  <text x="187" y="584" text-anchor="middle" class="label-sm">Discover Movement Connect v0.0.1</text>

  <!-- Bottom Nav Bar -->
  <rect x="0" y="748" width="375" height="64" fill="#111122"/>
  <line x1="0" y1="748" x2="375" y2="748" stroke="#2A2A3E" stroke-width="1"/>

  <!-- Home -->
  <rect x="24" y="758" width="30" height="20" rx="4" fill="none" stroke="#555" stroke-width="1"/>
  <text x="39" y="792" text-anchor="middle" class="nav-text">Home</text>

  <!-- Workouts -->
  <rect x="96" y="758" width="30" height="20" rx="4" fill="none" stroke="#555" stroke-width="1"/>
  <text x="111" y="792" text-anchor="middle" class="nav-text">Workouts</text>

  <!-- Schedule -->
  <rect x="171" y="758" width="30" height="20" rx="4" fill="none" stroke="#555" stroke-width="1"/>
  <text x="186" y="792" text-anchor="middle" class="nav-text">Schedule</text>

  <!-- Progress -->
  <rect x="246" y="758" width="30" height="20" rx="4" fill="none" stroke="#555" stroke-width="1"/>
  <text x="261" y="792" text-anchor="middle" class="nav-text">Progress</text>

  <!-- Profile (active) -->
  <circle cx="333" cy="768" r="10" fill="none" stroke="#E8711A" stroke-width="1.5"/>
  <text x="333" y="792" text-anchor="middle" class="nav-active">Profile</text>
</svg>
