<svg xmlns="http://www.w3.org/2000/svg" width="256" height="256" viewBox="0 0 256 256" fill="none">
<rect width="256" height="256" fill="#253340"/>
<path d="M 49.21,236.98 H 24.6 L 20.27,247.71 H 12.19 L 32.41,201.38 H 41.53 L 61.81,247.71 H 53.61 L 49.21,236.98 Z M 46.46,230.19 L 36.88,209.4 L 27.41,230.19 H 46.46 Z" fill="url(#paint0_linear_1202_165)"/>
<path d="M 96.78,247.71 L 88.29,233.9 C 87.71,233.98 87.13,233.98 86.55,233.98 H 75.16 V 247.71 H 67.45 V 201.38 H 86.55 C 98.06,201.38 105.27,208.01 105.27,217.68 C 105.27,225.01 101.96,229.86 95.95,232.21 L 106.19,247.71 H 96.78 Z M 86.21,208.01 H 75.16 V 227.17 H 86.21 C 93.92,227.17 97.46,223.91 97.46,217.68 C 97.46,212.07 93.92,208.01 86.21,208.01 Z" fill="url(#paint1_linear_1202_165)"/>
<path d="M 111.68,224.41 C 111.68,210.66 121.52,200.4 134.91,200.4 C 142.82,200.4 148.67,203.43 152.78,207.96 L 147.44,213.13 C 143.96,209.29 140.31,207.46 135.62,207.46 C 125.91,207.46 119.61,215.14 119.61,224.41 C 119.61,233.95 126.08,241.07 135.39,241.07 C 141.12,241.07 145.23,238.37 147.86,234.88 L 152.78,240.74 C 148.44,245.82 142.65,248.69 134.94,248.69 C 121.58,248.69 111.68,238.31 111.68,224.41 Z" fill="url(#paint2_linear_1202_165)"/>
<path d="M 160.26,227.91 V 201.38 H 168.4 V 227.68 C 168.4,236.55 172.68,240.84 180.06,240.84 C 187.44,240.84 191.15,236.55 191.15,227.68 V 201.38 H 198.96 V 227.91 C 198.96,239.91 192.04,248.69 179.72,248.69 C 167.4,248.69 160.26,239.91 160.26,227.91 Z" fill="url(#paint3_linear_1202_165)"/>
<path d="M 207.82,243.13 L 210.22,236.21 C 214.22,239.81 220.29,241.75 226.25,241.75 C 232.72,241.75 236.26,238.94 236.26,235.05 C 236.26,225.01 209.18,231.3 209.18,213.91 C 209.18,205.82 215.25,200.63 226.76,200.63 C 232.49,200.63 237.72,202.19 241.61,204.82 L 239.32,211.45 C 235.32,209.01 230.93,207.62 226.7,207.62 C 220.29,207.62 217.15,210.25 217.15,214.08 C 217.15,223.86 243.58,217.95 243.58,235.05 C 243.58,242.9 237.72,248.81 226.04,248.81 C 219.12,248.75 212.15,246.41 207.82,243.13 Z" fill="url(#paint4_linear_1202_165)"/>
<path d="M 128.52,7 C 126.75,13.74 128.69,20.37 145.62,30.1 C 162.56,39.82 181.95,48.92 184.41,67.05 C 180.01,72.56 179.72,75.13 179.72,82.63 L 169.71,87.6 C 168.06,81.74 168.75,77.16 170.75,70.04 C 173.73,59.08 161.93,48.01 144.08,35.73 C 134.46,29.21 127.24,24.92 126.95,17.12 C 126.55,13.91 127.18,10.42 128.52,7 Z" fill="url(#paint5_linear_1202_165)"/>
<path d="M 180.01,78.84 C 180.64,74.1 181.75,71.02 183.52,67.71 C 181.63,53.75 171.39,45.14 158.28,36.7 C 149.22,31.19 130.68,22.98 128.75,9.13 C 127.41,13.03 127.64,16.46 128.92,19.09 C 132.06,25.49 139.44,30.15 146.25,34.44 C 159.7,43.16 176.75,54.12 176.75,67.17 C 176.75,71.02 174.98,74.85 173.82,78.9 C 172.91,82.22 173.08,85.25 173.65,87.6 L 179.49,84.73 C 179.49,83.23 179.72,81.35 180.01,78.84 Z" fill="url(#paint6_linear_1202_165)"/>
<path d="M 180.41,91.14 L 190.76,103.26 C 192.87,116.94 187.75,130.26 178.12,143.31 C 169.06,155.65 156.06,167.98 155.1,179.62 C 154.93,182.19 155.83,185.35 156.23,185.69 C 153.25,183.76 150.62,179.65 150.22,176.21 L 116.88,135.13 L 114.94,134.45 L 114.16,132.05 L 150.39,172.79 C 152.32,164.29 159.13,154.19 167.51,142.25 C 175.42,131.01 179.81,120.28 178.35,110.9 C 177.72,106.94 171.82,100.26 170.92,95.13 L 180.41,91.14 Z" fill="url(#paint7_linear_1202_165)"/>
<path d="M 178.12,91.14 C 178.75,97.6 184.15,103.06 189.99,103.74 C 191.33,115.49 187.44,128.05 178.38,140.44 C 169.32,152.78 157.28,165.11 156.32,176.75 C 156.15,179.32 156.55,182.19 156.95,183.14 C 154.44,179.65 154.15,176.21 155.05,172.06 C 157.23,162.02 165.08,152.13 173.45,139.51 C 180.72,128.55 184.61,117.93 184.61,110.02 C 184.61,105.38 177.92,100.26 176.15,92.3 L 178.12,91.14 Z" fill="url(#paint8_linear_1202_165)"/>
<path d="M 132.64,57.58 L 149.51,96.41 L 129.72,106.4 L 120.66,85.61 C 121.12,73.16 124.48,62.09 132.64,57.58 Z" fill="url(#paint9_linear_1202_165)"/>
<path d="M 154.56,106.86 L 168.55,134.91 L 152.32,157.19 L 138.33,126.88 C 145.25,121.81 151.41,114.91 154.56,106.86 Z" fill="url(#paint10_linear_1202_165)"/>
<path d="M 176.15,151.31 L 188.35,178.52 H 175.81 C 169.2,177.89 164.16,175.21 161.64,171.43 C 164.1,165.46 170.35,157.96 176.15,151.31 Z" fill="url(#paint11_linear_1202_165)"/>
<path d="M 167.91,162.04 C 171.74,168.84 177.26,174.24 186.32,177.21 L 188.26,178.15 L 177.32,177.98 C 171.42,177.29 165.69,174.66 162.7,171.23 C 163.96,168.26 165.72,165.14 167.91,162.04 Z" fill="url(#paint12_linear_1202_165)"/>
<path d="M 54.13,178.26 L 127.95,17.12 L 128.75,19.06 C 127.69,22.03 111.25,57.07 111.25,57.07 L 110.73,60.28 C 114.74,57.36 117.94,57.01 125.6,57.36 L 131.95,57.64 C 125.14,59.25 121.49,70.48 120.75,85.07 L 104.46,123.39 L 196.79,76.71 L 189.76,71.96 L 213.81,70.4 L 196.16,89.75 L 197.02,83.06 L 150.45,105.49 C 144.88,118.61 134.99,125.36 118.17,134.45 C 102.81,142.88 94.52,145.85 87.08,163.24 C 81.51,176.24 72.92,178.35 63.86,178.35 L 54.13,178.26 Z" fill="url(#paint13_linear_1202_165)"/>
<path d="M 59.41,170.95 L 108.11,66.23 C 112.97,60.06 117.83,57.18 125.11,57.18 H 131.41 C 124.59,58.79 119.2,65.64 115.14,74.85 L 88.98,131.35 L 197.19,75.76 L 200.17,77.16 L 94.15,139.06 C 79.02,147.55 66.88,157.71 59.41,170.95 Z" fill="url(#paint14_linear_1202_165)"/>
<defs>
<linearGradient id="paint0_linear_1202_165" x1="12" y1="224" x2="62" y2="224" gradientUnits="userSpaceOnUse">
<stop stop-color="#0A4A7A"/>
<stop offset="1" stop-color="#1265A0"/>
</linearGradient>
<linearGradient id="paint1_linear_1202_165" x1="67" y1="224" x2="106" y2="224" gradientUnits="userSpaceOnUse">
<stop stop-color="#1265A0"/>
<stop offset="1" stop-color="#1A82C0"/>
</linearGradient>
<linearGradient id="paint2_linear_1202_165" x1="111" y1="224" x2="153" y2="224" gradientUnits="userSpaceOnUse">
<stop stop-color="#1A82C0"/>
<stop offset="1" stop-color="#22A0D8"/>
</linearGradient>
<linearGradient id="paint3_linear_1202_165" x1="160" y1="224" x2="199" y2="224" gradientUnits="userSpaceOnUse">
<stop stop-color="#22A0D8"/>
<stop offset="1" stop-color="#29BDE8"/>
</linearGradient>
<linearGradient id="paint4_linear_1202_165" x1="207" y1="224" x2="244" y2="224" gradientUnits="userSpaceOnUse">
<stop stop-color="#29BDE8"/>
<stop offset="1" stop-color="#34D3F5"/>
</linearGradient>
<linearGradient id="paint5_linear_1202_165" x1="127.069" y1="7" x2="179.093" y2="84.7606" gradientUnits="userSpaceOnUse">
<stop stop-color="#29D3EF"/>
<stop offset="0.510417" stop-color="#2970A0"/>
<stop offset="1" stop-color="#FF6EB4"/>
</linearGradient>
<linearGradient id="paint6_linear_1202_165" x1="127.918" y1="9.12695" x2="181.791" y2="84.1109" gradientUnits="userSpaceOnUse">
<stop stop-color="#29D3EF"/>
<stop offset="0.479167" stop-color="#2970A0"/>
<stop offset="1" stop-color="#FF4DA6"/>
</linearGradient>
<linearGradient id="paint7_linear_1202_165" x1="114.156" y1="91.1357" x2="186.061" y2="185.15" gradientUnits="userSpaceOnUse">
<stop stop-color="#29D3EF"/>
<stop offset="0.510417" stop-color="#293F96"/>
<stop offset="1" stop-color="#FF4DA6"/>
</linearGradient>
<linearGradient id="paint8_linear_1202_165" x1="153.921" y1="91.1357" x2="196.046" y2="170.238" gradientUnits="userSpaceOnUse">
<stop stop-color="#29D3EF"/>
<stop offset="0.510417" stop-color="#293F96"/>
<stop offset="1" stop-color="#FF4DA6"/>
</linearGradient>
<linearGradient id="paint9_linear_1202_165" x1="120.66" y1="57.5771" x2="149.052" y2="100.316" gradientUnits="userSpaceOnUse">
<stop stop-color="#E91E8C"/>
<stop offset="1" stop-color="#FF6EB4"/>
</linearGradient>
<linearGradient id="paint10_linear_1202_165" x1="138.326" y1="106.856" x2="166.718" y2="149.595" gradientUnits="userSpaceOnUse">
<stop stop-color="#FF6EB4"/>
<stop offset="1" stop-color="#E91E8C"/>
</linearGradient>
<linearGradient id="paint11_linear_1202_165" x1="161.643" y1="151.306" x2="188.123" y2="179.71" gradientUnits="userSpaceOnUse">
<stop stop-color="#FF6EB4"/>
<stop offset="1" stop-color="#E91E8C"/>
</linearGradient>
<linearGradient id="paint12_linear_1202_165" x1="162.699" y1="162.042" x2="180.723" y2="183.91" gradientUnits="userSpaceOnUse">
<stop stop-color="#C2185B"/>
<stop offset="1" stop-color="#E91E8C"/>
</linearGradient>
<linearGradient id="paint13_linear_1202_165" x1="133.971" y1="17.1221" x2="133.971" y2="183.962" gradientUnits="userSpaceOnUse">
<stop stop-color="#29D3EF"/>
<stop offset="0.510417" stop-color="#2970A0"/>
<stop offset="1" stop-color="#293596"/>
</linearGradient>
<linearGradient id="paint14_linear_1202_165" x1="104.943" y1="57.1816" x2="104.943" y2="170.949" gradientUnits="userSpaceOnUse">
<stop stop-color="#39D6DF"/>
<stop offset="0.510417" stop-color="#2970A0"/>
<stop offset="1" stop-color="#293596"/>
</linearGradient>
</defs>
</svg>
